<?xml version="1.0" encoding="utf-8"?>
<!-- Generator: Adobe Illustrator 19.0.0, SVG Export Plug-In . SVG Version: 6.00 Build 0)  -->
<svg version="1.1" id="Layer_1" xmlns="http://www.w3.org/2000/svg" xmlns:xlink="http://www.w3.org/1999/xlink" x="0px" y="0px"
	 viewBox="0 0 1250 1500" style="enable-background:new 0 0 1250 1500;" xml:space="preserve">
<style type="text/css">
	.st0{fill:#BABABA;}
	.st1{fill:#FFFFFF;}
</style>
<g id="XMLID_640_">
	<g id="XMLID_641_">
		<g id="XMLID_642_">
			<path id="path11220_1_" class="st0" d="M365.7,628.4h-23.3v245.5h23.3V628.4z"/>
			<path id="path11222_1_" class="st0" d="M413.6,873.9h-23.3V709.7h23.3V873.9"/>
			<path id="path11224_1_" class="st0" d="M461.5,709.7h73.7V727h-73.7v86.5c0,9.3,0.8,16.9,2.4,22.5c2,5.6,4.4,10.1,8,13.3
				c3.2,3.2,7.2,5.2,12.1,6.4c4.8,1.2,10.1,1.6,15.7,1.6c9.7,0,17.7-0.8,23.7-2.8s10.5-4,14.1-5.6l5.6,16.9c-3.2,2-9.3,4-17.7,6.4
				c-8.5,2.4-17.3,3.6-27.4,3.6c-11.3,0-20.9-1.2-29-3.6c-7.6-2.8-13.7-6.8-18.5-12.1c-4.4-5.6-7.6-12.1-9.7-20.1
				c-2-8-2.8-17.3-2.8-28.2V658.5h23.3V709.7"/>
			<path id="path11227_1_" class="st0" d="M537.9,790.9c0-14.1,2.4-26.6,6.8-37c4.8-10.9,10.9-19.7,18.1-26.6
				c7.6-7.2,16.1-12.5,25.8-15.7c9.7-3.6,19.7-5.2,30.2-5.2c22.5,0,40.6,6.4,53.9,19.3c13.7,12.9,20.5,33,20.5,60
				c0,1.6,0,3.2-0.4,4.8c0,1.6,0,3.2-0.4,4.8H562.9c0.8,19.7,6.4,35,16.9,45.9c10.5,10.9,27.4,16.1,49.9,16.1
				c12.5,0,22.5-1.2,30.2-3.2c7.2-2,12.9-4,16.1-5.2l4.4,17.7c-3.2,1.6-9.7,3.6-18.9,6s-19.7,3.6-32.2,3.6c-16.1,0-30.2-2-41.5-6.4
				c-11.3-4-20.9-10.1-28.2-17.7c-7.2-7.6-12.9-16.5-16.1-26.6C539.5,814.7,537.9,803,537.9,790.9 M669.1,778.1
				c-0.4-16.9-4.8-30.2-13.7-39.4c-8.5-9.3-20.9-14.1-36.6-14.1c-8.5,0-15.7,1.6-22.5,4.4c-6.4,2.8-12.1,6.8-17.3,12.1
				c-4.8,4.8-8.5,10.5-11.3,16.9c-2.8,6.4-4,13.3-4.8,20.5L669.1,778.1"/>
			<path id="path11229_1_" class="st0" d="M417.6,673.8c0,4.8-1.6,8.9-4.4,11.7c-3.2,2.8-6.8,4-11.3,4c-4.4,0-8-1.2-11.3-4
				c-3.2-2.8-4.4-6.8-4.4-11.7s1.6-8.5,4.4-11.3c3.2-2.8,6.8-4.4,11.3-4.4c4.4,0,8,1.6,11.3,4.4C416,665.4,417.6,669,417.6,673.8"/>
			<path id="path11231_1_" class="st0" d="M1075.6,714.9c6.8-1.6,16.1-3.6,27.8-5.6c11.7-2,26.2-3.2,43.1-3.2
				c14.1,0,25.8,1.6,35,5.2c9.7,3.6,16.9,8.9,22.5,15.3c5.6,6.4,9.7,14.5,12.1,23.7c2.4,9.3,3.6,19.3,3.6,30.6v92.6h-23.3v-85.7
				c0-11.7-0.8-21.3-2.8-29.4c-1.6-8-4.8-14.5-8.9-19.3c-4-4.8-9.7-8.5-16.5-10.9c-6.8-2.4-15.3-3.6-25.4-3.6
				c-10.9,0-20.5,0.4-28.6,1.6c-8,1.2-12.9,2-15.3,2.8v144.5h-23.3L1075.6,714.9"/>
			<path id="path11233_1_" class="st0" d="M794.7,875.5c-14.5,0-27-2-37.8-6c-10.9-4-20.1-9.7-27.4-16.9
				C722.3,844.9,717,836,713,826c-3.6-10.5-5.6-22.1-5.6-34.6c0-12.9,2-24.6,5.6-35c4-10.5,9.7-19.3,17.3-27
				c7.2-7.6,16.5-13.3,27-17.3c10.5-4,22.1-6.4,35.4-6.4c10.1,0,19.3,0.8,27.8,2c8.9,1.6,15.7,3.2,20.5,5.6l-6,17.7
				c-4.8-2-10.1-3.6-16.1-4.8c-6-1.2-14.1-2-24.1-2c-20.5,0-36.2,6-46.7,17.7c-10.5,11.7-15.7,27.8-15.7,49.5
				c0,9.7,1.2,18.5,3.6,26.6c2.4,8,6,14.9,11.3,20.9c5.6,5.6,12.5,10.1,20.9,13.7c8.5,3.2,18.9,4.8,31,4.8c10.1,0,18.5-0.8,25-2.8
				c6.8-2,12.1-4,14.9-5.2l4.8,17.7c-4.4,2-11.3,4-20.5,6C814.4,874.7,804.8,875.5,794.7,875.5"/>
			<path id="path11235_1_" class="st0" d="M1009.2,790.9c0,12.9-2,24.6-6.4,35c-4,10.5-10.1,19.3-17.7,26.6
				c-7.2,7.2-16.1,13.3-26.6,17.3c-10.1,4-21.7,6-33.8,6c-12.5,0-23.7-2-33.8-6s-19.3-10.1-27-17.3c-7.2-7.2-13.3-16.1-17.7-26.6
				c-4-10.5-6-22.1-6-35s2-24.6,6-35c4.4-10.5,10.1-19.3,17.7-26.6c7.6-7.6,16.5-13.3,27-17.3c10.1-4,21.7-6.4,33.8-6.4
				c12.5,0,23.7,2,33.8,6.4c10.1,4,18.9,9.7,26.6,17.3c7.6,7.2,13.3,16.1,17.7,26.6C1007.2,766.8,1009.2,778.5,1009.2,790.9
				 M984.7,790.9c0-20.1-5.2-36.6-16.1-48.3c-10.9-12.1-25.4-18.1-43.5-18.1c-18.5,0-33,6-43.5,18.1c-10.9,12.1-16.1,28.2-16.1,48.3
				s5.2,36.6,16.1,48.3c10.9,12.1,25.4,18.1,43.5,18.1c18.5,0,33-6,43.5-18.1C979,827.6,984.7,811.5,984.7,790.9"/>
			<path id="path11237_1_" class="st0" d="M1051.1,873.9h-23.3V709.7h23.3V873.9"/>
			<path id="path11239_1_" class="st0" d="M1055.1,673.8c0,4.8-1.6,8.9-4.4,11.7c-3.2,2.8-6.8,4-11.3,4c-4.4,0-8-1.2-11.3-4
				c-3.2-2.8-4.4-6.8-4.4-11.7s1.6-8.5,4.4-11.3c3.2-2.8,6.8-4.4,11.3-4.4c4.4,0,8,1.6,11.3,4.4
				C1053.5,665.4,1055.1,669,1055.1,673.8"/>
		</g>
		<path id="path11241_1_" class="st0" d="M312.1,750.3c0,78.1-63.6,141.7-141.7,141.7S28.8,828.4,28.8,750.3s63.6-141.7,141.7-141.7
			S312.1,671.8,312.1,750.3z"/>
	</g>
	<path id="path11243_1_" class="st1" d="M147.9,663l-22.1,83.3l-15.3,5.6l-7.2,27.4l15.3-5.6l-12.5,47.5h135.6l9.3-35.4h-81.7
		l9.3-34.6l14.9-5.6l7.2-27.4l-14.9,5.6l16.1-61.2L147.9,663z"/>
</g>
</svg>
